<?xml version="1.0" encoding="UTF-8" standalone="no"?>
<!DOCTYPE svg PUBLIC "-//W3C//DTD SVG 1.1//EN" "http://www.w3.org/Graphics/SVG/1.1/DTD/svg11.dtd">
<svg version="1.1" xmlns="http://www.w3.org/2000/svg" xmlns:xlink="http://www.w3.org/1999/xlink" preserveAspectRatio="xMidYMid meet" viewBox="3.2755943775509166 3.1782520365965823 40.43711773395681 61.49828862273326" width="36.44" height="57.5"><defs><path d="M25.95 4.72L27.2 5.15L28.38 5.69L29.49 6.34L30.52 7.08L31.46 7.92L32.3 8.84L33.03 9.84L33.66 10.91L34.16 12.04L34.54 13.23L34.77 14.47L34.87 15.75L34.81 17.03L34.61 18.27L34.27 19.47L33.8 20.62L33.21 21.71L32.5 22.73L31.69 23.67L30.92 24.4L31.72 25.45L32.65 26.68L33.53 27.87L34.37 29.04L35.17 30.18L35.93 31.3L36.63 32.4L37.29 33.48L37.9 34.56L38.45 35.62L38.95 36.68L39.39 37.73L39.77 38.78L40.09 39.83L40.35 40.89L40.54 41.96L40.66 43.04L40.71 44.13L40.69 45.23L40.6 46.3L40.44 47.36L40.22 48.4L39.93 49.41L39.58 50.4L39.17 51.36L38.7 52.29L38.17 53.19L37.59 54.05L36.96 54.88L36.28 55.67L35.56 56.43L34.78 57.14L33.97 57.81L33.11 58.43L32.22 59L31.28 59.53L30.32 60L29.32 60.42L28.28 60.78L27.23 61.08L26.14 61.33L25.03 61.51L23.9 61.63L22.75 61.68L21.59 61.66L20.46 61.58L19.35 61.43L18.25 61.21L17.19 60.94L16.15 60.61L15.13 60.22L14.15 59.78L13.21 59.28L12.29 58.73L11.42 58.14L10.58 57.49L9.79 56.81L9.04 56.07L8.34 55.3L7.68 54.49L7.08 53.64L6.53 52.76L6.03 51.84L5.59 50.89L5.21 49.92L4.89 48.91L4.64 47.88L4.45 46.83L4.33 45.76L4.28 44.67L4.3 43.57L4.39 42.49L4.54 41.42L4.77 40.35L5.06 39.29L5.41 38.23L5.82 37.16L6.28 36.09L6.81 35.01L7.38 33.92L8.01 32.82L8.68 31.7L9.41 30.56L10.17 29.39L10.98 28.2L11.83 26.98L12.71 25.73L13.49 24.66L12.7 23.95L11.86 23.03L11.12 22.03L10.5 20.96L9.99 19.83L9.62 18.64L9.38 17.4L9.28 16.12L9.34 14.84L9.54 13.6L9.88 12.4L10.35 11.25L10.95 10.17L11.65 9.15L12.47 8.2L13.38 7.33L14.38 6.56L15.47 5.88L16.64 5.3L17.87 4.84L19.17 4.49L20.51 4.27L21.9 4.18L23.3 4.23L24.65 4.41L24.65 4.41L25.95 4.72ZM17.97 6.81L16.8 7.39L15.72 8.1L14.76 8.93L13.91 9.88L13.19 10.92L12.61 12.05L12.19 13.25L11.94 14.51L11.87 15.83L11.98 17.14L12.27 18.4L12.72 19.59L13.33 20.7L14.08 21.72L14.96 22.63L15.95 23.44L17.05 24.12L18.23 24.66L19.5 25.06L20.83 25.3L22.21 25.37L23.6 25.26L24.92 24.98L26.18 24.55L27.35 23.97L28.42 23.26L29.39 22.42L30.24 21.48L30.96 20.44L31.53 19.31L31.95 18.11L32.21 16.84L32.28 15.53L32.17 14.22L31.88 12.96L31.42 11.77L30.81 10.66L30.07 9.64L29.19 8.72L28.2 7.92L27.1 7.24L25.91 6.69L24.65 6.29L23.32 6.06L21.93 5.99L20.55 6.1L19.22 6.37L19.22 6.37L17.97 6.81Z" id="fdfqNUDWT"></path></defs><g><g><use xlink:href="#fdfqNUDWT" opacity="1" fill="#333333" fill-opacity="1"></use></g></g></svg>